<svg xmlns="http://www.w3.org/2000/svg" version="1.1" xmlns:xlink="http://www.w3.org/1999/xlink" xmlns:svgjs="http://svgjs.dev/svgjs" width="1000" height="1000" viewBox="0 0 1000 1000"><rect width="1000" height="1000" fill="#ffffff"></rect><g transform="matrix(0.7,0,0,0.7,149.57575757575756,282.1265587044535)"><svg viewBox="0 0 396 247" data-background-color="#8d021f" preserveAspectRatio="xMidYMid meet" height="623" width="1000" xmlns="http://www.w3.org/2000/svg" xmlns:xlink="http://www.w3.org/1999/xlink"><g id="tight-bounds" transform="matrix(1,0,0,1,0.2400000000000091,-0.09999999999999432)"><svg viewBox="0 0 395.52 247.2" height="247.2" width="395.52"><g><svg></svg></g><g><svg viewBox="0 0 395.52 247.2" height="247.2" width="395.52"><g transform="matrix(1,0,0,1,39.55199999999999,97.54848262792166)"><svg viewBox="0 0 316.416 52.10303474415666" height="52.10303474415666" width="316.416"><g><svg viewBox="0 0 316.416 52.10303474415666" height="52.10303474415666" width="316.416"><g><svg viewBox="0 0 316.416 52.10303474415666" height="52.10303474415666" width="316.416"><g><svg viewBox="0 0 316.416 52.10303474415666" height="52.10303474415666" width="316.416"><g id="textblocktransform"><svg viewBox="0 0 316.416 52.10303474415666" height="52.10303474415666" width="316.416" id="textblock"><g><svg viewBox="0 0 316.416 52.10303474415666" height="52.10303474415666" width="316.416"><g transform="matrix(1,0,0,1,0,0)"><svg width="316.416" viewBox="-12.149999618530273 -35.70000076293945 237.4199981689453 39.10000228881836" height="52.10303474415666" data-palette-color="#ffffff"><path d="M23.2-1.25L23.2-1.25Q23.2-0.75 24.03-0.75 24.85-0.75 26.95-1.73 29.05-2.7 30.65-3.7L30.65-3.7 32.25-4.7Q32.3-4.6 32.3-4.3 32.3-4 31.85-3.8L31.85-3.8Q25.1 0.8 22.45 0.8L22.45 0.8Q21.15 0.8 21.15-0.5 21.15-1.8 23.3-5.45L23.3-5.45 32.1-20.75Q32.1-20.9 31.93-20.9 31.75-20.9 31.25-20.43 30.75-19.95 22.13-11.15 13.5-2.35 12-0.8L12-0.8Q11.15 0.2 10.5 0.2L10.5 0.2Q9.95 0.2 9.95-0.45L9.95-0.45Q9.95-1.95 16.53-11.93 23.1-21.9 23.35-23.1L23.35-23.1Q23.35-23.25 23.23-23.25 23.1-23.25 22.38-22.53 21.65-21.8 12-11.75 2.35-1.7 0.8 0.05L0.8 0.05Q0.4 0.35-0.08 0.35-0.55 0.35-0.55-0.1L-0.55-0.1Q-0.55-0.45-0.1-1.2 0.35-1.95 1.18-3.35 2-4.75 4.13-8.65 6.25-12.55 7.88-16 9.5-19.45 10.83-23.4 12.15-27.35 12.15-29.85L12.15-29.85Q12.15-34 8.55-34L8.55-34Q4.4-34-0.23-31.63-4.85-29.25-7.75-26.15-10.65-23.05-10.65-20.8L-10.65-20.8Q-10.65-18.2-6.43-18.2-2.2-18.2 1.63-20.83 5.45-23.45 7.05-26.45L7.05-26.45Q7.3-26.75 7.45-26.75 7.6-26.75 7.6-26.08 7.6-25.4 6.5-23.75 5.4-22.1 3.63-20.43 1.85-18.75-0.88-17.55-3.6-16.35-6.45-16.35L-6.45-16.35Q-12.15-16.35-12.15-20.1L-12.15-20.1Q-12.15-22.15-10.35-24.68-8.55-27.2-5.65-29.45-2.75-31.7 1.38-33.23 5.5-34.75 9.6-34.75L9.6-34.75Q14.25-34.75 14.25-29.9L14.25-29.9Q14.25-27.4 13.03-23.7 11.8-20 10.1-16.5L10.1-16.5Q6.65-9.65 3.6-4.9L3.6-4.9 2.4-2.95Q2.6-3.05 7.3-7.95L7.3-7.95Q22.85-24.05 24.2-25.4L24.2-25.4Q25.15-25.4 25.35-25.15 25.55-24.9 25.55-24.8L25.55-24.8 25.55-24.75Q25.55-23.4 16.5-9.2L16.5-9.2Q13-3.75 12.7-3.25L12.7-3.25 12.25-2.25Q12.65-2.25 17.4-7.28 22.15-12.3 27.03-17.32 31.9-22.35 32.6-22.35L32.6-22.35Q32.9-22.35 33.25-22.08 33.6-21.8 33.6-21.5 33.6-21.2 33.45-20.9L33.45-20.9 24.5-4.7Q23.2-2.3 23.2-1.25ZM40.3-5.95L40.3-5.95Q40-5.95 40-6.3L40-6.3 40.15-6.65Q41.05-7.5 41.05-8.1L41.05-8.1Q41.05-8.85 40.25-8.85L40.25-8.85Q38.5-8.85 35.52-6.43 32.55-4 32.55-2.1L32.55-2.1Q32.55-1.3 33.6-1.3 34.65-1.3 36.02-2.18 37.4-3.05 38.37-3.93 39.35-4.8 39.45-4.8L39.45-4.8Q39.95-4.75 39.95-4.3L39.95-4.3Q39.95-4.1 39.17-3 38.4-1.9 38.4-1.25L38.4-1.25Q38.4-0.75 39.22-0.75 40.05-0.75 42.15-1.73 44.25-2.7 45.85-3.7L45.85-3.7 47.45-4.7Q47.5-4.6 47.5-4.3 47.5-4 47.05-3.8L47.05-3.8Q40.3 0.8 37.65 0.8L37.65 0.8Q36.35 0.8 36.35-0.5L36.35-0.5Q36.35-1.05 36.55-1.65L36.55-1.65Q36.2-1.25 34.47-0.43 32.75 0.4 31.4 0.4 30.05 0.4 30.05-0.85L30.05-0.85Q30.05-3.8 34.15-6.88 38.25-9.95 41.05-9.95L41.05-9.95Q42.7-9.95 42.7-8.55L42.7-8.55Q42.7-7.75 41.7-6.85 40.7-5.95 40.3-5.95ZM46.35-3.35L46.35-3.35Q46.15-3.25 45.97-3.25 45.8-3.25 45.8-3.45 45.8-3.65 45.95-3.8L45.95-3.8Q48-4.95 50.45-7.55L50.45-7.55Q48.2-8.25 48.2-9.53 48.2-10.8 49.9-12.38 51.6-13.95 53.1-13.95L53.1-13.95Q54.1-13.95 54.1-12.75L54.1-12.75Q54.1-10.9 52.25-8.8L52.25-8.8Q54.65-8.4 54.65-7.65L54.65-7.65Q54.65-6.65 53.77-6.13 52.9-5.6 51.75-4.25 50.6-2.9 50.6-1.55L50.6-1.55Q50.6-1.25 50.8-1 51-0.75 51.65-0.75 52.3-0.75 54.4-1.73 56.5-2.7 58.1-3.7L58.1-3.7 59.7-4.7Q59.75-4.6 59.75-4.3 59.75-4 59.3-3.8L59.3-3.8Q52.55 0.8 49.9 0.8L49.9 0.8Q48.6 0.8 48.6-0.5L48.6-0.5Q48.6-1.55 49.32-2.7 50.05-3.85 50.92-4.6 51.8-5.35 52.52-6.03 53.25-6.7 53.25-6.9 53.25-7.1 52.62-7.15 52-7.2 51-7.4L51-7.4Q48.25-4.45 46.35-3.35ZM49.45-10.3L49.45-10.3Q49.45-9.3 51.65-8.9L51.65-8.9Q52.95-10.5 52.95-11.68 52.95-12.85 52.2-12.85 51.45-12.85 50.45-11.98 49.45-11.1 49.45-10.3ZM67.69-5.95L67.69-5.95Q67.39-5.95 67.39-6.3L67.39-6.3 67.54-6.65Q68.44-7.5 68.44-8.1L68.44-8.1Q68.44-8.85 67.64-8.85L67.64-8.85Q65.89-8.85 62.92-6.43 59.94-4 59.94-2.1L59.94-2.1Q59.94-1.3 60.99-1.3 62.04-1.3 63.42-2.18 64.79-3.05 65.77-3.93 66.74-4.8 66.84-4.8L66.84-4.8Q67.34-4.75 67.34-4.3L67.34-4.3Q67.34-4.1 66.57-3 65.79-1.9 65.79-1.25L65.79-1.25Q65.79-0.75 66.62-0.75 67.44-0.75 69.54-1.73 71.64-2.7 73.24-3.7L73.24-3.7 74.84-4.7Q74.89-4.6 74.89-4.3 74.89-4 74.44-3.8L74.44-3.8Q67.69 0.8 65.04 0.8L65.04 0.8Q63.74 0.8 63.74-0.5L63.74-0.5Q63.74-1.05 63.94-1.65L63.94-1.65Q63.59-1.25 61.87-0.43 60.14 0.4 58.79 0.4 57.44 0.4 57.44-0.85L57.44-0.85Q57.44-3.8 61.54-6.88 65.64-9.95 68.44-9.95L68.44-9.95Q70.09-9.95 70.09-8.55L70.09-8.55Q70.09-7.75 69.09-6.85 68.09-5.95 67.69-5.95ZM74.49-16.5L74.49-16.5Q77.89-16.5 81.19-16.55L81.19-16.55Q86.54-23.4 88.49-23.4L88.49-23.4Q89.19-23.4 89.19-22.65L89.19-22.65Q89.19-20.25 85.69-16.65L85.69-16.65 89.49-16.7Q93.29-16.85 94.14-16.85 94.99-16.85 94.99-16.65L94.99-16.65Q94.99-15.7 93.69-15.65L93.69-15.65 84.29-15.25Q81.84-12.95 78.24-10.4L78.24-10.4Q74.44-4.15 74.44-1.9L74.44-1.9Q74.44-0.75 75.92-0.75 77.39-0.75 80.59-2.35L80.59-2.35 84.64-4.7Q84.69-4.6 84.69-4.3 84.69-4 84.24-3.8L84.24-3.8Q82.64-2.7 80.74-1.6L80.74-1.6Q76.69 0.45 74.54 0.45L74.54 0.45Q73.54 0.45 72.99 0.05 72.44-0.35 72.39-0.75L72.39-0.75 72.29-1.15Q72.29-2.85 74.59-6.88 76.89-10.9 80.04-15.1L80.04-15.1Q77.64-15 75.49-15 73.34-15 73.34-15.5L73.34-15.5Q73.34-16.45 74.49-16.5ZM87.64-21.6L87.64-21.6Q87.64-21.85 87.44-21.85L87.44-21.85Q86.29-21.85 82.34-16.6L82.34-16.6 84.84-16.6Q87.64-19.65 87.64-21.6ZM83.44-15.2L83.44-15.2Q81.84-15.2 81.29-15.15L81.29-15.15Q80.84-14.5 80.04-13.25 79.24-12 78.94-11.55L78.94-11.55Q81.54-13.45 83.44-15.2ZM91.64 1.9L90.04 3.4Q88.89 3.4 88.49 2.65L88.49 2.65Q88.34 2.4 88.34 2.25 88.34 2.1 88.44 2L88.44 2Q92.99-1.35 99.24-8.5L99.24-8.5Q96.14-10.2 94.44-12.58 92.74-14.95 92.74-16.98 92.74-19 93.99-20.15 95.24-21.3 97.64-21.3L97.64-21.3Q102.19-21.3 105.39-16.05L105.39-16.05Q106.79-17.8 109.86-21.75 112.94-25.7 114.34-27.43 115.74-29.15 117.79-31.5L117.79-31.5Q121.59-35.7 123.54-35.7L123.54-35.7Q125.04-35.65 125.04-34.1L125.04-34.1Q125.04-32.45 123.91-29.58 122.79-26.7 122.11-25.03 121.44-23.35 120.11-20.58 118.79-17.8 118.04-16.18 117.29-14.55 115.74-11.38 114.19-8.2 113.59-6.95L113.59-6.95Q117.44-7.2 119.69-8.3L119.69-8.3Q120.09-8.5 120.19-8.75 120.29-9 120.46-9 120.64-9 120.81-8.8 120.99-8.6 120.99-8.4L120.99-8.4Q120.99-6.7 113.19-6.05L113.19-6.05Q111.24-2 110.49-0.2L110.49-0.2Q110.29 0.2 109.89 0.2L109.89 0.2Q108.84 0.2 108.84-1.8L108.84-1.8Q108.64-3.35 108.14-6.05L108.14-6.05Q104.19-6.35 100.74-7.8L100.74-7.8 100.74-7.75Q98.59-5.1 95.91-2.33 93.24 0.45 91.64 1.9L91.64 1.9ZM111.74-6.9L111.74-6.9Q123.19-30.7 123.19-33.45L123.19-33.45Q123.19-34.3 122.59-34.3L122.59-34.3Q121.69-34.3 120.06-32.5 118.44-30.7 117.44-29.5 116.44-28.3 114.79-26.18 113.14-24.05 112.06-22.65 110.99-21.25 109.04-18.63 107.09-16 106.14-14.75L106.14-14.75Q107.69-11.85 108.94-7.1L108.94-7.1Q110.14-6.9 111.74-6.9ZM104.84-15.3L104.84-15.3Q101.89-20.4 97.84-20.4L97.84-20.4Q96.04-20.4 95.14-19.65 94.24-18.9 94.24-17.43 94.24-15.95 95.91-13.78 97.59-11.6 100.44-9.95L100.44-9.95Q101.94-11.7 104.84-15.3ZM105.54-13.95L105.54-13.95Q103.94-11.8 101.84-9.15L101.84-9.15Q104.79-7.75 107.84-7.25L107.84-7.25Q106.79-11.45 105.54-13.95ZM111.29-5.95L111.29-5.95 109.19-5.95 109.79-2.8Q110.39-4 111.29-5.95ZM120.03 0.8L120.03 0.8Q117.78 0.8 117.78-1.65L117.78-1.65Q117.78-4.9 121.31-10.98 124.83-17.05 129.36-21.88 133.88-26.7 136.48-26.7L136.48-26.7Q137.43-26.7 137.43-25.35L137.43-25.35Q137.43-23.25 133.91-18.5 130.38-13.75 126.33-9.6 122.28-5.45 120.08-3.9L120.08-3.9Q119.98-3.1 119.98-2.83 119.98-2.55 120.03-2.2 120.08-1.85 120.43-1.3 120.78-0.75 121.61-0.75 122.43-0.75 124.53-1.73 126.63-2.7 128.23-3.7L128.23-3.7 129.83-4.7Q129.88-4.6 129.88-4.3 129.88-4 129.43-3.8L129.43-3.8Q122.68 0.8 120.03 0.8ZM135.63-24.15L135.63-24.15Q135.58-25.25 134.98-25.25L134.98-25.25Q133.43-25.25 130.28-21.75 127.13-18.25 124.18-13.38 121.23-8.5 120.33-5L120.33-5Q122.43-6.7 125.73-10 129.03-13.3 132.23-17.55 135.43-21.8 135.63-24.15ZM131.13-4.85L131.13-4.85Q128.13-4.85 128.13-6.15L128.13-6.15Q128.13-7.7 131.68-9.83 135.23-11.95 138.08-11.95L138.08-11.95Q139.53-11.95 139.53-11.05L139.53-11.05Q139.53-10.55 138.78-9.95 138.03-9.35 137.33-9 136.63-8.65 136.53-8.65L136.53-8.65Q136.23-8.65 136.13-8.9L136.13-8.9Q136.03-9.25 136.66-9.63 137.28-10 137.28-10.45 137.28-10.9 136.16-10.9 135.03-10.9 132.63-9.33 130.23-7.75 130.23-6.75L130.23-6.75Q130.23-6 131.98-6L131.98-6Q132.28-6 133.08-6.05 133.88-6.1 133.88-5.85 133.88-5.6 131.41-4.05 128.93-2.5 128.93-1.4L128.93-1.4Q128.93-0.15 130.56-0.15 132.18-0.15 134.23-1L134.23-1Q137.53-2.45 140.23-4.1L140.23-4.1 141.18-4.7Q141.23-4.6 141.23-4.3 141.23-4 140.78-3.8L140.78-3.8Q138.13-2 134.98-0.38 131.83 1.25 129.31 1.25 126.78 1.25 126.78-0.43 126.78-2.1 131.13-4.85ZM141.33-4.15L141.33-4.15 140.08-3.35Q139.88-3.25 139.7-3.25 139.53-3.25 139.53-3.45 139.53-3.65 139.68-3.8L139.68-3.8Q140.08-4 142.2-5.63 144.33-7.25 144.95-7.25 145.58-7.25 145.58-6.53 145.58-5.8 144.05-3.55 142.53-1.3 142.53-1.13 142.53-0.95 142.63-0.95L142.63-0.95Q143.08-0.95 147.83-4.9 152.58-8.85 152.98-8.85L152.98-8.85Q153.73-8.85 153.73-8.15L153.73-8.15Q153.73-7.7 152-5.08 150.28-2.45 149.73-1.5L149.73-1.5Q149.78-1.45 149.95-1.45 150.13-1.45 151.98-2.78 153.83-4.1 155.83-5.6 157.83-7.1 158.18-7.33 158.53-7.55 158.83-7.55L158.83-7.55Q159.43-7.5 159.43-6.85L159.43-6.85Q159.43-6.6 157.7-4.23 155.98-1.85 155.98-1.2L155.98-1.2Q155.98-0.75 157.05-0.75 158.13-0.75 160.23-1.73 162.33-2.7 163.93-3.7L163.93-3.7 165.53-4.7Q165.58-4.6 165.58-4.3 165.58-4 165.13-3.8L165.13-3.8Q158.38 0.8 155.73 0.8L155.73 0.8Q154.18 0.8 154.18-0.4L154.18-0.4Q154.18-1.55 154.85-2.6 155.53-3.65 156.03-4.38 156.53-5.1 156.53-5.15L156.53-5.15Q149.83-0.25 148.8 0.23 147.78 0.7 147.33 0.7 146.88 0.7 146.88-0.3L146.88-0.3 150.48-5.9Q149.88-5.65 146.58-3.15 143.28-0.65 141.43 1L141.43 1Q140.73 1.85 140.08 1.85L140.08 1.85Q139.43 1.7 139.43 1L139.43 1Q139.43 0.8 141.25-1.95 143.08-4.7 143.08-4.93 143.08-5.15 142.95-5.15 142.83-5.15 142.53-4.98 142.23-4.8 141.83-4.5 141.43-4.2 141.33-4.15ZM177.43-7.8L177.43-7.8Q177.58-7.95 177.83-7.95 178.08-7.95 178.08-7.78 178.08-7.6 177.73-7.3L177.73-7.3Q175.48-5.8 171.98-5.25L171.98-5.25Q171.68-2.8 169.95-0.85 168.23 1.1 166.18 1.1L166.18 1.1Q164.48 1.1 164.48-1.3L164.48-1.3Q164.48-2.5 165.93-5.5L165.93-5.5Q163.18-6.4 163.18-8.85L163.18-8.85Q163.18-9.8 164.08-10.43 164.98-11.05 166.35-11.05 167.73-11.05 168.83-10.65L168.83-10.65Q172.88-17.2 177.58-22.48 182.28-27.75 184.83-27.75L184.83-27.75Q185.78-27.75 185.78-26.4L185.78-26.4Q185.78-24 181.3-18.68 176.83-13.35 171.48-8.4L171.48-8.4Q172.03-7.4 172.03-6.15L172.03-6.15 172.03-6Q175.53-6.5 177.43-7.8ZM171.03-9.1L171.03-9.1Q175.83-13.6 179.78-18.23 183.73-22.85 183.98-25.2L183.98-25.2Q183.93-26.3 183.33-26.3L183.33-26.3Q181.98-26.3 177.65-21.03 173.33-15.75 169.98-10.05L169.98-10.05Q170.48-9.75 171.03-9.1ZM170.93-5.1Q170.38-5.05 169.28-5.05 168.18-5.05 167.63-5.15L167.63-5.15Q167.43-4.95 167.33-4.9L167.33-4.9Q166.38-2.6 166.38-1.8L166.38-1.8Q166.38-0.55 167.28-0.55L167.28-0.55Q168.63-0.55 169.73-1.93 170.83-3.3 170.93-5.1L170.93-5.1ZM168.18-9.55L168.18-9.55Q167.03-10.15 166.03-10.15L166.03-10.15Q164.43-10.15 164.43-9.1L164.43-9.1Q164.43-7.1 166.38-6.3L166.38-6.3Q167.18-7.95 168.18-9.55ZM168.48-5.85L168.48-5.85Q168.83-5.8 169.63-5.8 170.43-5.8 170.88-5.85L170.88-5.85Q170.78-6.75 170.38-7.45L170.38-7.45Q169.38-6.5 168.48-5.85ZM169.93-8.1L169.93-8.1 169.28-8.8Q169.23-8.65 168.73-7.78 168.23-6.9 168.03-6.45L168.03-6.45Q168.68-6.95 169.93-8.1ZM183.42-15.25L183.42-15.25Q184.17-15.25 184.17-14.5 184.17-13.75 183.47-12.98 182.77-12.2 181.92-12.2L181.92-12.2Q181.22-12.2 181.22-13.18 181.22-14.15 182.02-14.7 182.82-15.25 183.42-15.25ZM178.72-8.65L178.72-8.65Q178.97-9.05 179.42-9.05 179.87-9.05 180.32-8.6L180.32-8.6Q180.32-8.4 179.67-7.7 179.02-7 177.47-4.58 175.92-2.15 175.92-1.35L175.92-1.35Q175.92-0.85 176.67-0.75L176.67-0.75Q177.67-0.75 179.77-1.73 181.87-2.7 183.47-3.7L183.47-3.7 185.07-4.7Q185.12-4.6 185.12-4.3 185.12-4 184.67-3.8L184.67-3.8Q177.92 0.8 175.27 0.8L175.27 0.8Q173.97 0.8 173.97-0.5 173.97-1.8 175.4-4.13 176.82-6.45 178.72-8.65ZM195.52-2.3L195.52-2.3 199.62-4.7Q199.67-4.6 199.67-4.3 199.67-4 199.22-3.8L199.22-3.8Q192.42 0.75 189.52 0.75L189.52 0.75Q187.02 0.75 187.02-2.55L187.02-2.55Q187.02-3.9 187.47-5.03 187.92-6.15 188.92-6.15L188.92-6.15Q192.37-6.15 194.3-7.2 196.22-8.25 196.22-9.38 196.22-10.5 194.62-10.5L194.62-10.5Q191.02-10.5 185.47-4L185.47-4Q183.77-0.8 182.92 0.9L182.92 0.9Q182.67 1.35 182.22 1.35L182.22 1.35Q181.22 1.35 181.22 0.65L181.22 0.65Q181.22 0.35 181.42-0.05L181.42-0.05 185.87-7.85Q190.12-15.35 194.57-21.35 199.02-27.35 201.27-27.35L201.27-27.35Q202.02-27.35 202.32-26.65L202.32-26.65Q202.47-26.4 202.47-26.05L202.47-26.05Q202.47-24.25 199.37-20.4 196.27-16.55 193.57-13.9 190.87-11.25 188.07-8.75L188.07-8.75 186.67-6.25Q192.07-11.75 196.07-11.75L196.07-11.75Q198.37-11.75 198.37-10.25L198.37-10.25Q198.37-8.6 195.8-6.95 193.22-5.3 189.37-5.3L189.37-5.3Q188.82-4.5 188.82-3.5L188.82-3.5Q188.82-0.7 191.02-0.7L191.02-0.7Q192.62-0.7 195.37-2.2L195.37-2.2Q195.47-2.3 195.52-2.3ZM200.82-25.5L200.82-25.5Q200.82-26 200.57-26L200.57-26Q197.82-26 189.12-10.7L189.12-10.7Q193.52-14.75 197.17-18.98 200.82-23.2 200.82-25.5ZM209.17-3.5L209.17-3.5Q207.62-2.55 205.57-2.55L205.57-2.55 204.97-2.55Q203.62-1 202.09-0.03 200.57 0.95 199.47 0.95L199.47 0.95Q197.92 0.95 197.92-1.05 197.92-3.05 200.07-5.7L200.07-5.7Q199.87-6.25 199.87-7.05L199.87-7.05Q199.87-8.8 201.39-10.08 202.92-11.35 204.37-11.35L204.37-11.35Q207.42-11.35 207.42-8.05L207.42-8.05Q207.42-5.85 205.52-3.25L205.52-3.25 206.12-3.25Q207.72-3.25 208.87-4L208.87-4Q209.02-4.15 209.27-4.15 209.52-4.15 209.52-3.98 209.52-3.8 209.17-3.5ZM204.37-9.25L204.37-9.25Q204.62-9.35 204.77-9.35 204.92-9.35 204.92-9.13 204.92-8.9 204.37-8.5L204.37-8.5Q202.37-6.95 201.37-5.7L201.37-5.7Q202.47-3.95 204.72-3.4L204.72-3.4Q206.67-5.7 206.67-7.7L206.67-7.7Q206.67-8.85 205.92-9.45 205.17-10.05 203.99-10.05 202.82-10.05 201.82-9.38 200.82-8.7 200.82-7.93 200.82-7.15 200.97-6.7L200.97-6.7Q202.52-8.3 204.37-9.25ZM200.67-4.6L200.67-4.6Q199.87-3.25 199.87-1.6L199.87-1.6Q199.87-0.7 200.67-0.7L200.67-0.7Q202.02-0.7 204.02-2.7L204.02-2.7Q201.77-3.1 200.67-4.6ZM209.32-8.1L209.32-8.1 208.07-7.75Q207.97-7.75 207.97-7.9L207.97-7.9Q207.97-8.35 209.09-9 210.22-9.65 210.92-9.65 211.62-9.65 211.62-6.65L211.62-6.65 211.32-1.8Q211.37-1.85 214.67-5.48 217.97-9.1 220.39-11.05 222.82-13 224.52-13L224.52-13Q225.27-12.95 225.27-12.48 225.27-12 224.37-11.25 223.47-10.5 222.99-10.5 222.52-10.5 222.42-10.7 222.32-10.9 221.94-10.9 221.57-10.9 220.74-10.38 219.92-9.85 218.69-8.65 217.47-7.45 216.37-6.28 215.27-5.1 213.34-3.03 211.42-0.95 209.97 0.55L209.97 0.55Q209.57 0.9 209.29 0.9 209.02 0.9 209.02 0.7L209.02 0.7Q209.77-3.15 209.77-6.9L209.77-6.9 209.77-7.85Q209.62-8.1 209.32-8.1Z" opacity="1" transform="matrix(1,0,0,1,0,0)" fill="#000000" class="undefined-text-0" data-fill-palette-color="primary" id="text-0"></path></svg></g></svg></g></svg></g></svg></g><g></g></svg></g></svg></g></svg></g><g mask="url(#352c3786-c8e7-4b30-9d17-b8c0051fecb9)"><g transform="matrix(3.447209098382178, 0, 0, 3.447209098382178, 90.01747594804847, 1)"><svg xmlns="http://www.w3.org/2000/svg" data-name="Layer 1" viewBox="13.749998092651367 9.59000015258789 62.51000213623047 71.1300048828125" x="0" y="0" height="71.1300048828125" width="62.51000213623047" class="icon-none" data-fill-palette-color="accent" id="none"><path d="M76.26 28.17L45.92 9.59l-31.26 17 0 0.59v0h0l-0.91 34.95L44.08 80.72l31.26-17 0.91-35h0ZM73.37 62.53L44.14 78.42 15.77 61l0.86-33.26L45.86 11.9 74.23 29.27Z" fill="#000000" data-fill-palette-color="accent"></path><path d="M44.26 73.65a1 1 0 1 0 0 2h0a1 1 0 0 0 0-2Z" fill="#000000" data-fill-palette-color="accent"></path><path d="M44.39 68.74a1 1 0 0 0-1 1 1 1 0 0 0 1 1h0a1 1 0 0 0 1-1A1 1 0 0 0 44.39 68.74Z" fill="#000000" data-fill-palette-color="accent"></path><path d="M44.9 49.07a1 1 0 1 0-0.05 2h0a1 1 0 0 0 0-2Z" fill="#000000" data-fill-palette-color="accent"></path><path d="M44.77 54a1 1 0 0 0-1 1 1 1 0 0 0 1 1h0a1 1 0 0 0 0-2Z" fill="#000000" data-fill-palette-color="accent"></path><path d="M44.64 58.91a1 1 0 1 0 0 2h0a1 1 0 0 0 0-2Z" fill="#000000" data-fill-palette-color="accent"></path><path d="M44.52 63.82a1 1 0 1 0-0.06 2h0a1 1 0 0 0 0-2Z" fill="#000000" data-fill-palette-color="accent"></path><path d="M20.36 28.89a1 1 0 0 0-1.37 0.33 1 1 0 0 0 0.32 1.38 1 1 0 0 0 1.38-0.33A1 1 0 0 0 20.36 28.89Z" fill="#000000" data-fill-palette-color="accent"></path><path d="M37.13 39.16a1 1 0 0 0-1 1.71 1 1 0 0 0 1.37-0.33A1 1 0 0 0 37.13 39.16Z" fill="#000000" data-fill-palette-color="accent"></path><path d="M41.33 41.73a1 1 0 1 0-1 1.71 1 1 0 0 0 0.53 0.15 1 1 0 0 0 0.52-1.86Z" fill="#000000" data-fill-palette-color="accent"></path><path d="M28.75 34a1 1 0 0 0-1.38 0.33 1 1 0 0 0 0.33 1.37 1 1 0 0 0 0.52 0.15 1 1 0 0 0 0.86-0.48A1 1 0 0 0 28.75 34Z" fill="#000000" data-fill-palette-color="accent"></path><path d="M24.55 31.46a1 1 0 0 0-1 1.7 1 1 0 0 0 1.37-0.33A1 1 0 0 0 24.55 31.46Z" fill="#000000" data-fill-palette-color="accent"></path><path d="M32.94 36.6a1 1 0 1 0-1 1.7 1 1 0 0 0 0.52 0.15 1 1 0 0 0 0.52-1.85Z" fill="#000000" data-fill-palette-color="accent"></path><path d="M44.29 44.45a1 1 0 0 0-0.21 0.32 1 1 0 0 0-0.08 0.39 1 1 0 0 0 0.08 0.38 1 1 0 0 0 0.21 0.32 1 1 0 0 0 1.71-0.7 1 1 0 0 0-0.08-0.39 1 1 0 0 0-0.21-0.32A1 1 0 0 0 44.29 44.45Z" fill="#000000" data-fill-palette-color="accent"></path><path d="M62.29 36.76a0.89 0.89 0 0 0 0.47-0.12 1 1 0 1 0-0.95-1.75 1 1 0 0 0-0.4 1.35A1 1 0 0 0 62.29 36.76Z" fill="#000000" data-fill-palette-color="accent"></path><path d="M58 39.11a1 1 0 0 0 0.47-0.12 1 1 0 0 0 0.4-1.35A1 1 0 1 0 58 39.11Z" fill="#000000" data-fill-palette-color="accent"></path><path d="M66.61 34.42a0.9 0.9 0 0 0 0.47-0.13 1 1 0 1 0-0.47 0.13Z" fill="#000000" data-fill-palette-color="accent"></path><path d="M70.93 32.07a1.06 1.06 0 0 0 0.48-0.12 1 1 0 1 0-1.36-0.4A1 1 0 0 0 70.93 32.07Z" fill="#000000" data-fill-palette-color="accent"></path><path d="M49.32 43.81a1 1 0 0 0 0.48-0.12 1 1 0 1 0-0.48 0.12Z" fill="#000000" data-fill-palette-color="accent"></path><path d="M53.64 41.46a1 1 0 0 0 0.48-0.12 1 1 0 1 0-1.36-0.4A1 1 0 0 0 53.64 41.46Z" fill="#000000" data-fill-palette-color="accent"></path></svg></g></g></svg></g><defs><mask id="352c3786-c8e7-4b30-9d17-b8c0051fecb9"><rect width="640" height="400" fill="white"></rect><rect width="348.05760000000004" height="76.70358680467972" fill="black" y="85.24820659766013" x="23.731199999999973" id="transform-me"></rect></mask></defs></svg><rect width="395.52" height="247.2" fill="none" stroke="none" visibility="hidden"></rect></g></svg></g></svg>